#!OML:ASF E:\Style4\Style4.ASF
:FULLY-SPECIFIED
:DEGREES
1689
root 0.925637 16.8387 -1.48273 5.76298 -25.7644 4.22132
lowerback 18.9056 1.6948 -2.42808
upperback 11.915 1.60683 0.794165
thorax 2.16913 0.548547 1.94074
lowerneck 5.16305 -4.6831 -4.7355
upperneck -11.5822 -6.30231 4.72333
head -3.99553 -3.20124 2.51286
rclavicle 1.39149e-014 -6.36111e-015
rhumerus 29.1771 10.146 -75.9773
rradius 119.468
rwrist 21.9968
rhand 14.0981 -3.48028
rfingers 7.12502
rthumb 39.002 -28.9997
lclavicle 1.39149e-014 -6.36111e-015
lhumerus 28.5268 -22.1699 73.4849
lradius 115.24
lwrist -13.8244
lhand 12.5229 39.2722
lfingers 7.12502
lthumb 37.5151 65.2017
rfemur -41.4571 15.4148 9.58522
rtibia 53.2042
rfoot -19.9127 -5.04586
rtoes -18.1714
lfemur -33.7273 16.3971 -27.8496
ltibia 53.6766
lfoot -29.6719 13.8225
ltoes -10.7325
1690
root 0.929314 16.8464 -1.47832 5.77915 -25.7733 4.34219
lowerback 18.9057 1.65746 -2.4465
upperback 11.8469 1.55713 0.757797
thorax 2.09744 0.526503 1.92011
lowerneck 5.32705 -4.67761 -4.76295
upperneck -11.7055 -6.3009 4.74367
head -4.05878 -3.20105 2.53143
rclavicle 4.33351e-014 6.36111e-015
rhumerus 29.4766 9.83816 -76.1616
rradius 118.663
rwrist 22.3538
rhand 14.1543 -3.59325
rfingers 7.12502
rthumb 39.055 -29.0975
lclavicle 4.33351e-014 6.36111e-015
lhumerus 27.8845 -22.6015 73.5147
lradius 115.873
lwrist -13.1684
lhand 12.015 39.3665
lfingers 7.12502
lthumb 37.0349 65.4219
rfemur -41.4688 15.4115 9.41461
rtibia 53.1069
rfoot -19.9118 -4.98226
rtoes -18.0382
lfemur -33.7211 16.356 -28.0219
ltibia 53.5355
lfoot -29.501 13.966
ltoes -11.0918
1691
root 0.9344 16.8572 -1.47246 5.84018 -25.7483 4.34974
lowerback 18.9183 1.59957 -2.34146
upperback 11.7651 1.4992 0.749211
thorax 2.00608 0.5064 1.86034
lowerneck 5.42413 -4.67996 -4.80857
upperneck -11.6976 -6.3131 4.73574
head -4.07082 -3.20515 2.53954
rclavicle -2.70347e-014 1.90833e-014
rhumerus 29.5967 9.52977 -76.2967
rradius 117.865
rwrist 22.5802
rhand 14.309 -3.68981
rfingers 7.12502
rthumb 39.2009 -29.152
lclavicle -2.70347e-014 1.90833e-014
lhumerus 27.2577 -22.9608 73.5829
lradius 116.494
lwrist -12.6917
lhand 11.8266 39.3246
lfingers 7.12502
lthumb 36.8567 65.426
rfemur -41.4366 15.3614 9.37383
rtibia 52.9585
rfoot -19.8525 -4.95101
rtoes -18.1359
lfemur -33.685 16.2393 -28.0676
ltibia 53.3524
lfoot -29.2755 14.1101
ltoes -11.4309
1692
root 0.93654 16.8686 -1.46691 5.8745 -25.7972 4.38747
lowerback 18.9444 1.57365 -2.33966
upperback 11.6943 1.46619 0.749069
thorax 1.91685 0.492308 1.86354
lowerneck 5.39928 -4.66196 -4.86833
upperneck -11.6036 -6.29998 4.68224
head -4.03889 -3.19319 2.52919
rclavicle 1.11319e-014 -1.35174e-014
rhumerus 29.7252 9.26866 -76.4061
rradius 117.056
rwrist 22.592
rhand 14.5012 -3.87411
rfingers 7.12502
rthumb 39.3819 -29.2837
lclavicle 1.11319e-014 -1.35174e-014
lhumerus 26.7263 -23.1384 73.664
lradius 117.15
lwrist -12.6801
lhand 12.4492 39.2193
lfingers 7.12502
lthumb 37.4455 65.1673
rfemur -41.395 15.3831 9.3054
rtibia 52.7754
rfoot -19.7717 -4.94463
rtoes -18.4334
lfemur -33.607 16.2167 -28.1174
ltibia 53.13
lfoot -29.1841 14.2422
ltoes -11.9618
1693
root 0.936818 16.8822 -1.46331 5.94848 -25.8577 4.36035
lowerback 18.969 1.55907 -2.28953
upperback 11.6297 1.4548 0.74678
thorax 1.83495 0.491344 1.83364
lowerneck 5.39713 -4.64101 -4.90655
upperneck -11.5921 -6.27357 4.69649
head -4.03459 -3.17925 2.53821
rclavicle -8.34896e-015 2.46493e-014
rhumerus 29.826 8.98663 -76.5747
rradius 116.178
rwrist 22.7328
rhand 14.4991 -3.77196
rfingers 7.12502
rthumb 39.38 -29.1821
lclavicle -8.34896e-015 2.46493e-014
lhumerus 26.2629 -23.2223 73.7065
lradius 117.847
lwrist -12.7801
lhand 13.4741 39.0662
lfingers 7.12502
lthumb 38.4135 64.7517
rfemur -41.3387 15.4512 9.29856
rtibia 52.5501
rfoot -19.7042 -4.89374
rtoes -18.2302
lfemur -33.5338 16.1936 -28.0798
ltibia 52.8915
lfoot -29.2397 14.1514
ltoes -11.5117
1694
root 0.938306 16.8973 -1.46122 6.03964 -25.8661 4.37759
lowerback 18.9845 1.52087 -2.25732
upperback 11.5432 1.41143 0.733363
thorax 1.73525 0.474699 1.80749
lowerneck 5.37609 -4.61554 -4.92888
upperneck -11.5387 -6.24163 4.68575
head -4.01612 -3.16185 2.53529
rclavicle -3.4191e-014 2.8625e-014
rhumerus 29.8022 8.71896 -76.7261
rradius 115.304
rwrist 22.9668
rhand 14.5725 -3.69067
rfingers 7.12502
rthumb 39.4491 -29.0806
lclavicle -3.4191e-014 2.8625e-014
lhumerus 25.7923 -23.4154 73.6693
lradius 118.471
lwrist -12.3044
lhand 13.3075 39.103
lfingers 7.12502
lthumb 38.2562 64.832
rfemur -41.3082 15.4335 9.24295
rtibia 52.2999
rfoot -19.5834 -4.85062
rtoes -18.0349
lfemur -33.4855 16.0902 -28.1022
ltibia 52.6344
lfoot -29.2684 13.8853
ltoes -10.1634
1695
root 0.937495 16.9133 -1.45828 6.12836 -25.9572 4.38145
lowerback 19.0089 1.5289 -2.24537
upperback 11.4453 1.42417 0.722286
thorax 1.61556 0.485136 1.78538
lowerneck 5.43758 -4.60663 -4.91921
upperneck -11.5702 -6.23658 4.63583
head -4.03835 -3.1571 2.52103
rclavicle 1.59028e-015 -2.94201e-014
rhumerus 29.6929 8.44033 -76.8666
rradius 114.419
rwrist 23.2127
rhand 14.8925 -3.90468
rfingers 7.12502
rthumb 39.7504 -29.2055
lclavicle 1.59028e-015 -2.94201e-014
lhumerus 25.4385 -23.6241 73.6176
lradius 119.051
lwrist -11.8316
lhand 13.1558 39.0561
lfingers 7.12502
lthumb 38.113 64.8245
rfemur -41.269 15.4701 9.19894
rtibia 52.0251
rfoot -19.477 -4.73677
rtoes -17.7364
lfemur -33.4117 16.1094 -28.1224
ltibia 52.3673
lfoot -29.129 13.7494
ltoes -9.52045
1696
root 0.934843 16.9315 -1.45578 6.19628 -26.1404 4.39272
lowerback 19.0574 1.58975 -2.28507
upperback 11.3614 1.4955 0.697558
thorax 1.49584 0.522117 1.7675
lowerneck 5.44597 -4.60188 -4.86149
upperneck -11.5982 -6.23062 4.58363
head -4.05228 -3.15356 2.49669
rclavicle -1.51076e-014 -2.14687e-014
rhumerus 29.5539 8.10223 -77.0446
rradius 113.528
rwrist 23.4505
rhand 15.2273 -4.04123
rfingers 7.12502
rthumb 40.0655 -29.2475
lclavicle -1.51076e-014 -2.14687e-014
lhumerus 25.2308 -23.6518 73.5794
lradius 119.661
lwrist -11.9012
lhand 14.2297 38.9036
lfingers 7.12502
lthumb 39.1261 64.3874
rfemur -41.2272 15.5866 9.15544
rtibia 51.7354
rfoot -19.3395 -4.73246
rtoes -17.9687
lfemur -33.334 16.2284 -28.1526
ltibia 52.0881
lfoot -28.9673 13.8787
ltoes -9.84086
1697
root 0.934181 16.9501 -1.45249 6.24457 -26.2372 4.46551
lowerback 19.0733 1.63491 -2.30711
upperback 11.2921 1.55036 0.642958
thorax 1.41041 0.552572 1.71145
lowerneck 5.3765 -4.61147 -4.73543
upperneck -11.5332 -6.23731 4.50635
head -4.0274 -3.15765 2.44971
rclavicle -1.66979e-014 8.74653e-015
rhumerus 29.3358 7.70887 -77.2581
rradius 112.673
rwrist 23.7113
rhand 15.3042 -3.96022
rfingers 7.12502
rthumb 40.1379 -29.1445
lclavicle -1.66979e-014 8.74653e-015
lhumerus 25.1998 -23.7017 73.487
lradius 120.14
lwrist -11.8463
lhand 14.7867 38.7755
lfingers 7.12502
lthumb 39.6508 64.106
rfemur -41.1712 15.589 9.06567
rtibia 51.4435
rfoot -19.2658 -4.72658
rtoes -18.2398
lfemur -33.2462 16.2359 -28.2437
ltibia 51.7944
lfoot -28.8666 13.9211
ltoes -9.81837
1698
root 0.93236 16.9657 -1.44988 6.33686 -26.2377 4.46446
lowerback 19.0897 1.6529 -2.22984
upperback 11.1993 1.58655 0.606681
thorax 1.30157 0.578804 1.62167
lowerneck 5.33405 -4.63542 -4.59195
upperneck -11.445 -6.26488 4.41139
head -4.00021 -3.17198 2.39571
rclavicle 2.82274e-014 -1.74931e-014
rhumerus 29.0215 7.3218 -77.453
rradius 111.868
rwrist 23.9651
rhand 15.2892 -3.89361
rfingers 7.12502
rthumb 40.1238 -29.0822
lclavicle 2.82274e-014 -1.74931e-014
lhumerus 25.2333 -23.8081 73.3125
lradius 120.532
lwrist -11.4934
lhand 14.3743 38.7999
lfingers 7.12502
lthumb 39.2624 64.2442
rfemur -41.0993 15.5422 9.05071
rtibia 51.1548
rfoot -19.265 -4.60818
rtoes -17.5975
lfemur -33.1667 16.224 -28.2745
ltibia 51.5215
lfoot -28.6879 14.1143
ltoes -11.1488
1699
root 0.929575 16.9834 -1.44837 6.45302 -26.2228 4.4879
lowerback 19.0846 1.66931 -2.17997
upperback 11.0916 1.61747 0.553728
thorax 1.18763 0.601959 1.5308
lowerneck 5.36777 -4.66941 -4.49879
upperneck -11.448 -6.30167 4.42181
head -4.0076 -3.19472 2.38657
rclavicle -4.13472e-014 4.77083e-015
rhumerus 28.6555 6.94499 -77.6383
rradius 111.111
rwrist 24.3696
rhand 15.3449 -3.94911
rfingers 7.12502
rthumb 40.1762 -29.1218
lclavicle -4.13472e-014 4.77083e-015
lhumerus 25.3073 -23.9038 73.1118
lradius 120.912
lwrist -11.2092
lhand 14.037 38.7642
lfingers 7.12502
lthumb 38.9445 64.3001
rfemur -41.0561 15.4474 9.01453
rtibia 50.8626
rfoot -19.2188 -4.49627
rtoes -17.1083
lfemur -33.1246 16.1705 -28.3339
ltibia 51.2461
lfoot -28.516 14.3398
ltoes -12.3313
1700
root 0.928224 17.002 -1.44704 6.62432 -26.2102 4.45691
lowerback 19.0674 1.70064 -2.02411
upperback 10.9808 1.68412 0.483203
thorax 1.07813 0.648278 1.35534
lowerneck 5.41229 -4.74281 -4.38469
upperneck -11.4821 -6.38371 4.48834
head -4.02282 -3.24392 2.39403
rclavicle -5.60573e-014 -9.54166e-015
rhumerus 28.2121 6.47714 -77.867
rradius 110.48
rwrist 24.9126
rhand 15.5354 -3.90423
rfingers 7.12502
rthumb 40.3554 -29.0221
lclavicle -5.60573e-014 -9.54166e-015
lhumerus 25.5168 -24.0033 72.898
lradius 121.249
lwrist -11.1505
lhand 14.0375 38.4629
lfingers 7.12502
lthumb 38.9449 63.9987
rfemur -41.0508 15.3729 9.01615
rtibia 50.5686
rfoot -19.1018 -4.3908
rtoes -16.7187
lfemur -33.1422 16.1079 -28.3357
ltibia 50.9812
lfoot -28.3547 14.3151
ltoes -12.1058
